<mxfile host="app.diagrams.net" agent="Mozilla/5.0 (Windows NT 10.0; Win64; x64) AppleWebKit/537.36 (KHTML, like Gecko) Chrome/128.0.0.0 Safari/537.36" version="24.8.6">
  <diagram name="第 1 页" id="HcmKmf9M_egDgi08nJnF">
    <mxGraphModel dx="2261" dy="749" grid="1" gridSize="10" guides="1" tooltips="1" connect="1" arrows="1" fold="1" page="1" pageScale="1" pageWidth="827" pageHeight="1169" math="0" shadow="0">
      <root>
        <mxCell id="0" />
        <mxCell id="1" parent="0" />
        <mxCell id="fa7i-DDVDkkYTf1QSpwB-3" style="edgeStyle=orthogonalEdgeStyle;rounded=0;orthogonalLoop=1;jettySize=auto;html=1;" edge="1" parent="1" source="fa7i-DDVDkkYTf1QSpwB-1" target="fa7i-DDVDkkYTf1QSpwB-2">
          <mxGeometry relative="1" as="geometry" />
        </mxCell>
        <mxCell id="fa7i-DDVDkkYTf1QSpwB-1" value="合同审批" style="rounded=1;whiteSpace=wrap;html=1;fontSize=23;" vertex="1" parent="1">
          <mxGeometry x="130" y="300" width="160" height="60" as="geometry" />
        </mxCell>
        <mxCell id="fa7i-DDVDkkYTf1QSpwB-10" style="edgeStyle=orthogonalEdgeStyle;rounded=0;orthogonalLoop=1;jettySize=auto;html=1;" edge="1" parent="1" source="fa7i-DDVDkkYTf1QSpwB-2" target="fa7i-DDVDkkYTf1QSpwB-8">
          <mxGeometry relative="1" as="geometry">
            <mxPoint x="670" y="510" as="targetPoint" />
          </mxGeometry>
        </mxCell>
        <mxCell id="fa7i-DDVDkkYTf1QSpwB-2" value="约定试用" style="rounded=1;whiteSpace=wrap;html=1;fontSize=23;fillColor=#f8cecc;strokeColor=#b85450;" vertex="1" parent="1">
          <mxGeometry x="150" y="480" width="120" height="60" as="geometry" />
        </mxCell>
        <mxCell id="fa7i-DDVDkkYTf1QSpwB-14" value="" style="edgeStyle=orthogonalEdgeStyle;rounded=0;orthogonalLoop=1;jettySize=auto;html=1;" edge="1" parent="1" source="fa7i-DDVDkkYTf1QSpwB-8" target="fa7i-DDVDkkYTf1QSpwB-13">
          <mxGeometry relative="1" as="geometry" />
        </mxCell>
        <mxCell id="fa7i-DDVDkkYTf1QSpwB-8" value="员工信息" style="rounded=1;whiteSpace=wrap;html=1;fontSize=23;" vertex="1" parent="1">
          <mxGeometry x="660" y="480" width="160" height="60" as="geometry" />
        </mxCell>
        <mxCell id="fa7i-DDVDkkYTf1QSpwB-11" value="终审通过回写员工信息" style="text;html=1;align=center;verticalAlign=middle;resizable=0;points=[];autosize=1;strokeColor=none;fillColor=none;fontSize=16;" vertex="1" parent="1">
          <mxGeometry x="360" y="510" width="180" height="30" as="geometry" />
        </mxCell>
        <mxCell id="fa7i-DDVDkkYTf1QSpwB-13" value="生成合同、试用" style="rounded=1;whiteSpace=wrap;html=1;fontSize=23;" vertex="1" parent="1">
          <mxGeometry x="640" y="700" width="200" height="60" as="geometry" />
        </mxCell>
        <mxCell id="fa7i-DDVDkkYTf1QSpwB-16" style="edgeStyle=orthogonalEdgeStyle;rounded=0;orthogonalLoop=1;jettySize=auto;html=1;" edge="1" parent="1" source="fa7i-DDVDkkYTf1QSpwB-15" target="fa7i-DDVDkkYTf1QSpwB-1">
          <mxGeometry relative="1" as="geometry" />
        </mxCell>
        <mxCell id="fa7i-DDVDkkYTf1QSpwB-15" value="合同流程发起" style="ellipse;whiteSpace=wrap;html=1;fontSize=17;" vertex="1" parent="1">
          <mxGeometry x="125" y="120" width="170" height="70" as="geometry" />
        </mxCell>
        <mxCell id="fa7i-DDVDkkYTf1QSpwB-17" value="" style="shape=flexArrow;endArrow=classic;html=1;rounded=0;fillColor=#e3c800;strokeColor=#B09500;" edge="1" parent="1">
          <mxGeometry width="50" height="50" relative="1" as="geometry">
            <mxPoint y="690" as="sourcePoint" />
            <mxPoint x="150" y="550" as="targetPoint" />
          </mxGeometry>
        </mxCell>
        <mxCell id="fa7i-DDVDkkYTf1QSpwB-18" value="" style="shape=flexArrow;endArrow=classic;html=1;rounded=0;fillColor=#e3c800;strokeColor=#B09500;" edge="1" parent="1">
          <mxGeometry width="50" height="50" relative="1" as="geometry">
            <mxPoint x="600" y="260" as="sourcePoint" />
            <mxPoint x="410" y="500" as="targetPoint" />
          </mxGeometry>
        </mxCell>
        <mxCell id="fa7i-DDVDkkYTf1QSpwB-19" value="" style="shape=flexArrow;endArrow=classic;html=1;rounded=0;fillColor=#e3c800;strokeColor=#B09500;" edge="1" parent="1">
          <mxGeometry width="50" height="50" relative="1" as="geometry">
            <mxPoint x="1020" y="460" as="sourcePoint" />
            <mxPoint x="760" y="640" as="targetPoint" />
          </mxGeometry>
        </mxCell>
        <mxCell id="fa7i-DDVDkkYTf1QSpwB-20" value="合同服务终审回写之前拼装合同、试用子集数据" style="text;html=1;align=center;verticalAlign=middle;resizable=0;points=[];autosize=1;strokeColor=none;fillColor=none;rotation=-15;fontSize=16;" vertex="1" parent="1">
          <mxGeometry x="390" y="370" width="360" height="30" as="geometry" />
        </mxCell>
        <mxCell id="fa7i-DDVDkkYTf1QSpwB-21" value="合同服务终审只传合同数据，试用由员工信息生成" style="text;html=1;align=center;verticalAlign=middle;resizable=0;points=[];autosize=1;strokeColor=none;fillColor=none;rotation=-30;fontSize=16;" vertex="1" parent="1">
          <mxGeometry x="780" y="540" width="380" height="30" as="geometry" />
        </mxCell>
        <mxCell id="fa7i-DDVDkkYTf1QSpwB-23" value="合同服务约定试用时校验相同合同主体场景，提示" style="text;html=1;align=center;verticalAlign=middle;resizable=0;points=[];autosize=1;strokeColor=none;fillColor=none;rotation=0;fontSize=16;" vertex="1" parent="1">
          <mxGeometry x="110" y="585" width="380" height="30" as="geometry" />
        </mxCell>
      </root>
    </mxGraphModel>
  </diagram>
</mxfile>
